# xmcd
#
# Track frame offsets: 
#        150
#        34864
#        38919
#        62409
#        66303
#        102959
#        106894
#        128954
#        130204
#        149542
#        152838
#        170195
#        174733
#        204363
#        220489
#        249638
#        278627
#        279077
#
# Disc length: 4103 seconds
#
# Revision: 0
# Processed by: cddbd v1.5.2PL0 Copyright (c) Steve Scherf et al.
# Submitted via: ExactAudioCopy v0.99pb5
#
DISCID=14100512
DTITLE=Tail Dragger - Live At Rooster's Lounge
DYEAR=2009
DGENRE=Blues
TTITLE0=Louise
TTITLE1=Talk
TTITLE2=Baby Please Don't Go
TTITLE3=Talk
TTITLE4=She's Worrin' Me
TTITLE5=Talk
TTITLE6=Stop Lying
TTITLE7=Talk
TTITLE8=Keep To Yourself
TTITLE9=Talk
TTITLE10=Wander
TTITLE11=Talk
TTITLE12=Bought Me A New Home
TTITLE13=Ooh Baby Hold Me 
TTITLE14=I'm In The Mood
TTITLE15=Everything Gonna Be Alright
TTITLE16=Talk
TTITLE17=Blues With A Feeling
EXTD=
EXTT0=
EXTT1=
EXTT2=
EXTT3=
EXTT4=
EXTT5=
EXTT6=
EXTT7=
EXTT8=
EXTT9=
EXTT10=
EXTT11=
EXTT12=
EXTT13=
EXTT14=
EXTT15=
EXTT16=
EXTT17=
PLAYORDER=
